<?xml version="1.0" encoding="utf-8"?>
<!-- Generator: Adobe Illustrator 23.0.1, SVG Export Plug-In . SVG Version: 6.00 Build 0)  -->
<svg version="1.1" xmlns="http://www.w3.org/2000/svg" xmlns:xlink="http://www.w3.org/1999/xlink" x="0px" y="0px"
	 viewBox="0 0 788.2 706" style="enable-background:new 0 0 788.2 706;" xml:space="preserve">
<style type="text/css">
	.st0{fill:url(#SVGID_1_);}
	.st1{fill:url(#SVGID_2_);}
	.st2{fill:#474747;}
	.st3{display:none;}
	.st4{display:inline;}
</style>
<g id="Layer_1">
	<g>
		<linearGradient id="SVGID_1_" gradientUnits="userSpaceOnUse" x1="41.0859" y1="625.7727" x2="747.0859" y2="625.7727">
			<stop  offset="0" style="stop-color:#0D73AF"/>
			<stop  offset="1" style="stop-color:#D176AC"/>
		</linearGradient>
		<polygon class="st0" points="695.6,654.5 92.6,654.5 92.6,545.5 41.1,545.5 41.1,706 747.1,706 747.1,545.5 695.6,545.5 		"/>
		<linearGradient id="SVGID_2_" gradientUnits="userSpaceOnUse" x1="41.0859" y1="80.2273" x2="747.0859" y2="80.2273">
			<stop  offset="0" style="stop-color:#0D73AF"/>
			<stop  offset="1" style="stop-color:#D176AC"/>
		</linearGradient>
		<polygon class="st1" points="92.6,51.5 695.6,51.5 695.6,160.5 747.1,160.5 747.1,0 41.1,0 41.1,160.5 92.6,160.5 		"/>
	</g>
	<path class="st2" d="M32.5,501.2H21.1L8.8,487.4v13.8H0v-40.7h8.8v13.3l9.7-13.3h10.2l-15.5,20.1L32.5,501.2z"/>
	<path class="st2" d="M66,460.6h26v7.6H74.7v9.3h15.1v7.5H74.7v8.7h17.8v7.6H66V460.6z"/>
	<path class="st2" d="M135.3,460.6l7.3,26.7l7.3-26.7h9.1l-12.5,40.7h-7.7l-12.5-40.7H135.3z"/>
	<path class="st2" d="M204.6,501.2v-18.4l-15.8-22.2h10.4l9.9,15.2l10-15.2h10.4l-15.9,22.4v18.3H204.6z"/>
	<path class="st2" d="M259.9,460.6h31v7.8h-11.1v32.9H271v-32.9h-11.1V460.6z"/>
	<path class="st2" d="M337.2,501.2v-18.4l-15.8-22.2h10.4l9.9,15.2l10-15.2H362l-15.9,22.4v18.3H337.2z"/>
	<path class="st2" d="M426,501.2h-10.5l-9.2-14h-2v14h-8.8v-40.7h16.8c9.3,0,13.6,6.7,13.6,13.3c0,5.8-3.2,11.4-10.2,12.9L426,501.2
		z M404.4,468.2v11.4h7.4c3.4,0,5.2-3.1,5.2-5.7c0-2.5-1.7-5.7-4.9-5.7H404.4z"/>
	<path class="st2" d="M472,460.6v40.7h-8.7v-40.7H472z"/>
	<path class="st2" d="M508.3,460.6h31v7.8h-11.1v32.9h-8.8v-32.9h-11.1V460.6z"/>
	<path class="st2" d="M572.3,460.6h31v7.8h-11.1v32.9h-8.8v-32.9h-11.1V460.6z"/>
	<path class="st2" d="M644,491.6l-3.6,9.6h-9.3l15.2-40.7h9.5l15.2,40.7h-9.2l-3.6-9.6H644z M645.1,446.5c2.3,0,4.2,1.8,4.2,4
		c0,2.3-1.9,4.1-4.2,4.1c-2.4,0-4.3-1.8-4.3-4.1C640.8,448.2,642.7,446.5,645.1,446.5z M655.4,484.1l-4.3-14.2l-4.2,14.2H655.4z
		 M655.6,446.5c2.3,0,4.2,1.8,4.2,4c0,2.3-1.9,4.1-4.2,4.1c-2.4,0-4.3-1.8-4.3-4.1C651.3,448.2,653.3,446.5,655.6,446.5z"/>
	<path class="st2" d="M700,492.7c2,0.4,5,1,8.9,0.3c2.9-0.6,3.4-2.6,3.5-5.4v-26.6h8.8v30.1c0,5.8-4.3,10.1-13.5,10.1
		c-1.1,0-6.3-0.8-8.5-1.2L700,492.7z"/>
	<path class="st2" d="M761.2,491.6l-3.6,9.6h-9.3l15.2-40.7h9.5l15.2,40.7H779l-3.6-9.6H761.2z M762.3,446.5c2.3,0,4.2,1.8,4.2,4
		c0,2.3-1.9,4.1-4.2,4.1c-2.4,0-4.3-1.8-4.3-4.1C757.9,448.2,759.9,446.5,762.3,446.5z M772.6,484.1l-4.3-14.2l-4.2,14.2H772.6z
		 M772.8,446.5c2.3,0,4.2,1.8,4.2,4c0,2.3-1.9,4.1-4.2,4.1c-2.4,0-4.3-1.8-4.3-4.1C768.5,448.2,770.4,446.5,772.8,446.5z"/>
	<g>
		<path class="st2" d="M0,210.8h128.4v38.4H43.8V296h67v38.1h-67V416H0V210.8z"/>
		<path class="st2" d="M356.9,416h-52.4l-45.9-70.9h-9.8V416h-43.8V210.8h84c46.5,0,68.2,33.7,68.2,67.3c0,29.2-16.1,57.8-51.2,65.2
			L356.9,416z M248.7,249.2V307h36.9c17,0,25.9-15.5,25.9-28.9c0-12.8-8.3-28.9-24.7-28.9H248.7z"/>
		<path class="st2" d="M439.4,210.8h129.9v38.4h-86.4V296h75.7v37.8h-75.7v43.8h89.1V416H439.4V210.8z"/>
		<path class="st2" d="M655.6,210.8h129.9v38.4h-86.4V296h75.7v37.8h-75.7v43.8h89.1V416H655.6V210.8z"/>
	</g>
</g>
<g id="Layer_2" class="st3">
	<g class="st4">
		<path class="st2" d="M23.3,332.9c-2.6-8.2-1.7-17.3-1.7-25.9c-0.4-3-0.9-26.8-0.9-29.8c0-1.3,0-22.5,0-30.2c0-4.7,0-25.9,0-30.2
			c1.3-5.2,10.8-7.3,14.7-8.2c10.4-1.7,21.6-0.4,31.5-1.3c2.2,0,14.7-2.2,16.8-2.6c15.1-1.7,28.1-0.9,43.6-0.9c4.7,0,25.5,0,29.8,0
			c22,3,21.6,20.3,21.6,38.4c0,1.7,0,3,0,4.7c0,2.2-0.4,13.4-0.4,15.5c-1.3,6.9-7.3,6.9-13,6.9c-4.3,0.4-25,2.6-29.8,3
			c-8.6,4.3-40.2,2.2-41.9,5.6c0,1.7,0,8.2,0,9.5c0,7.3,0,12.5,1.3,19.4c0.4,0.4,2.2,0.9,3,0.9c0.9,0.4,10.4,0,11.7,0
			c1.7,0.4,13.4,0.9,15.1,0.9c18.1,0.4,33.7-6,35.4,16c0,3.9,1.3,27.6,1.7,34.5c0,0,0,2.6,0,3.5c0,15.5-22,16.4-33.7,16.8
			c-0.4,0-1.3,0-1.7,0c-3.5,0.4-19.4,0.4-23.3,0c-0.9,0.4-0.9,0.9-0.9,1.7c0,22.9,2.6,45.8,2.6,69.1c0,16,4.3,41-17.7,44.5
			c-3,0.4-12.1,2.2-12.5,2.2H43.6c-11.7,0-16.8-4.3-16-16L23.3,332.9z"/>
		<path class="st2" d="M209,251.3c-1.7-13.8-1.7-28.1-1.7-41.4c0-9.1,7.8-7.8,14.7-9.9l36.3-1.7c6-2.2,8.6-2.2,13.8-2.2
			c19,0,44.5,2.2,61.7,12.1c2.6,2.6,13.8,14.7,16.4,17.3c15.1,16.8,18.6,37.6,18.6,58.7c0,17.7-4.3,38.9-16.8,52.2
			c-3.5,3.9-21.6,22.9-25.9,26.3c0,0-0.4,0.9,0,1.3c5.2,3.5,76.9,9.5,86.4,112.7c0,2.2-2.6,2.6-4.8,2.6l-57.4,6h-9.9
			c-1.7,0-3-3.5-3-4.3c-1.7-9.1-1.3-11.2-4.7-19.9c-1.7-6-12.1-33.7-14.2-39.7c-3-6.5-20.3-33.7-29.4-31.9c-1.7,0.4-1.7,1.7-1.7,3
			c0,0.4,0,1.7,0,1.7c3,28.9,6.5,57.4,6.5,86.8c0,10.4-6.9,12.1-16.8,13.8c-5.2,0.9-23.7,3.5-26.3,3.5c-0.9,0.4-9.9,0.4-13.4,0.4
			c-2.2,0-11.2,0-13.4-0.4c-2.2-0.9-7.3-3.5-7.3-6.5v-33.7L209,251.3z M279.4,320.8c0.4,1.3,0.9,1.7,1.7,1.7
			c27.6,5.2,41.4-68.2-3.5-70.8l-0.9,0.9c0,1.7,0,27.2,0,28.9C276.8,289.3,278.1,313,279.4,320.8z"/>
		<path class="st2" d="M443.8,341.5c-0.4-33.2-2.2-66.5-2.2-99.7c0-13.8,0.9-39.3,21.2-42.3l101,3.5c8.2,0.9,9.9,13.4,10.8,19.9
			c0.4,3.5,1.7,14.2,1.7,14.7c0,0.4,0.4,8.2,0.4,10.8c0,1.7-0.4,9.1-0.4,10.8c-2.6,10.4-11.2,12.5-21.2,12.5
			c-5.2,0.4-30.2,1.3-35.4,1.3c-0.4,0-2.2,0.9-2.6,0.9c-0.4,0-1.3,0.9-1.3,0.9v45.3l1.7,2.2l43.2,2.2c4.7,0,13,2.2,13,8.2v37.1
			c0,4.3-3.5,10.8-8.2,11.2c-16-0.4-31.9,0-47.9,0.9c-1.3,0.9-1.7,2.6-1.7,4.3c0,0.4,0,2.2,0,2.2c0,5.2,0.9,30.2,1.3,35.4v0.4v0.4
			v0.4c0.4,1.7,0.9,3,3,3c16.4,0,31.9-4.3,47.9-4.3c2.2,0,7.8-0.4,9.9,0.9c8.2,4.3,11.2,32.4,11.2,41.4c0,2.6,0,5.2-0.4,7.8
			c2.2,32.4-86.8,15.1-134.3,21.2c-2.2,0-5.2-1.7-5.6-4.7c0,0,0-4.7,0-5.2c-0.4-3.9-2.6-33.7-2.6-37.1c-1.3-17.3,1.3-34.5-2.2-51.4
			C444.3,388.6,443.8,349.7,443.8,341.5z"/>
		<path class="st2" d="M622.6,341.5c-0.4-33.2-2.2-66.5-2.2-99.7c0-13.8,0.9-39.3,21.2-42.3l101,3.5c8.2,0.9,9.9,13.4,10.8,19.9
			c0.4,3.5,1.7,14.2,1.7,14.7c0,0.4,0.4,8.2,0.4,10.8c0,1.7-0.4,9.1-0.4,10.8c-2.6,10.4-11.2,12.5-21.2,12.5
			c-5.2,0.4-30.2,1.3-35.4,1.3c-0.4,0-2.2,0.9-2.6,0.9c-0.4,0-1.3,0.9-1.3,0.9v45.3l1.7,2.2l43.2,2.2c4.7,0,13,2.2,13,8.2v37.1
			c0,4.3-3.5,10.8-8.2,11.2c-16-0.4-31.9,0-47.9,0.9c-1.3,0.9-1.7,2.6-1.7,4.3c0,0.4,0,2.2,0,2.2c0,5.2,0.9,30.2,1.3,35.4v0.4v0.4
			v0.4c0.4,1.7,0.9,3,3,3c16.4,0,31.9-4.3,47.9-4.3c2.2,0,7.8-0.4,9.9,0.9c8.2,4.3,11.2,32.4,11.2,41.4c0,2.6,0,5.2-0.4,7.8
			c2.2,32.4-86.8,15.1-134.3,21.2c-2.2,0-5.2-1.7-5.6-4.7c0,0,0-4.7,0-5.2c-0.4-3.9-2.6-33.7-2.6-37.1c-1.3-17.3,1.3-34.5-2.2-51.4
			C623,388.6,622.6,349.7,622.6,341.5z"/>
	</g>
	<g class="st4">
		<path class="st2" d="M211.2,582.5c0-3.7,0.2-7.4,0.2-11.2c0-5.2-0.4-10.3-0.4-15.5c0-0.2,0-0.9,0-1l0.1-0.2c0,0,0.7-0.1,1-0.1
			c2-0.1,3.3-0.1,5.3-0.1c0.4,0,1.3,0,1.3,0l0.1,0.1c0,0,0.2,1.8,0.3,2.5c0.1,1.2,0.5,6.8,0.5,8l0.2,0.9l0.1,0.1c0,0,0,0,0.1,0
			c0.2,0,0.6-0.7,0.7-0.8c1.5-2.2,3.2-5.5,3.2-8.2c0-0.7-0.1-1.4-0.1-2c0-0.1,0-0.2,0-0.2l0.2-0.1h8.2c0.3,0,0.3,0.3,0.3,0.5
			c0,4.6-3.5,11.2-6.6,14.2v0.2c6.4,2.6,7.3,8.8,8.1,14.1c0,0.2,0,0.5,0.1,0.7c0.1,0.7-0.8,1.3-1.4,1.5c-1,0-5.3,0.1-6.2,0.1
			c0,0-0.5,0-0.7,0c-0.1,0-0.6,0-0.7,0c-0.1,0-0.2-0.2-0.2-0.3c-0.8-3.8-1-10.3-4.1-12.9c-0.1,0-0.4-0.2-0.4-0.2l-0.1,0.1
			c0,0.5,0,2.7,0,3.2c0,2.6,0.1,5.5-0.4,8.1c-0.7,1.4-2.4,1.5-3.8,1.6c-0.1,0-2,0.1-2.7,0.1c0,0-0.2,0-0.3,0c-1,0-1.7-0.2-1.9-1.3
			C211.2,584.1,211.2,582.8,211.2,582.5z"/>
		<path class="st2" d="M239.9,570.1c0-3.6-0.2-7.2-0.2-10.7c0-1.5,0.1-4.2,2.3-4.6l10.9,0.4c0.9,0.1,1.1,1.4,1.2,2.1
			c0,0.4,0.2,1.5,0.2,1.6c0,0,0,0.9,0,1.2c0,0.2,0,1,0,1.2c-0.3,1.1-1.2,1.3-2.3,1.3c-0.6,0-3.3,0.1-3.8,0.1c0,0-0.2,0.1-0.3,0.1
			c0,0-0.1,0.1-0.1,0.1v4.9l0.2,0.2l4.6,0.2c0.5,0,1.4,0.2,1.4,0.9v4c0,0.5-0.4,1.2-0.9,1.2c-1.7,0-3.4,0-5.2,0.1
			c-0.1,0.1-0.2,0.3-0.2,0.5c0,0,0,0.2,0,0.2c0,0.6,0.1,3.3,0.1,3.8v0v0v0c0,0.2,0.1,0.3,0.3,0.3c1.8,0,3.4-0.5,5.2-0.5
			c0.2,0,0.8,0,1.1,0.1c0.9,0.5,1.2,3.5,1.2,4.5c0,0.3,0,0.6,0,0.8c0.2,3.5-9.3,1.6-14.5,2.3c-0.2,0-0.6-0.2-0.6-0.5
			c0,0,0-0.5,0-0.6c0-0.4-0.3-3.6-0.3-4c-0.1-1.9,0.1-3.7-0.2-5.5C240,575.1,239.9,570.9,239.9,570.1z"/>
		<path class="st2" d="M263.7,572v-0.8l-2.5-11.2c-0.2-1.3-0.4-2.8-0.8-4.1c0,0,0.1-0.2,0.2-0.3c0.9,0,5-0.3,5.9-0.3
			c0,0,0.4,0,0.6,0c0.1,0,0.4,0,0.5,0c0.2,0,0.3,0.2,0.4,0.4c0.1,0.5,0.5,1.6,0.5,1.7l1.2,6.6v0.3c0,0.1,0.4,2.7,0.6,3.7
			c0,0.4,0.2,1.3,0.5,1.9c0.1-0.1,0.2-0.3,0.2-0.5l2.3-13.3c0-0.4,0.4-0.6,0.6-0.6c0.1,0,0.2,0,0.2,0c1.8,0.1,5.9,0.4,5.9,0.4
			l0.2,0.2c0,0,0,0.2,0,0.3c0,0.1,0,0.5,0,0.5c0,0.1-0.3,0.9-0.3,1c-0.2,0.9-0.2,1.8-0.4,2.7c-0.4,2.1-0.8,4.2-1.2,6.3
			c0,0.3-0.4,2.9-0.4,3.2c-0.3,2-0.9,4.1-1.2,6.2c-0.3,2.2-1.3,8.5-2.9,9.6c0,0-0.1,0-0.2,0.1c-0.5,0.1-2,0.3-2.2,0.3c0,0-0.7,0-1,0
			c-1.6,0-3.6,0.4-4.2-1.7c0-0.1-0.1-0.8-0.1-1L263.7,572z"/>
		<path class="st2" d="M293,582.8c0-0.7,0-2.5,0-2.6c0-0.2,0.1-1.5,0.1-1.6c0-0.1-0.1-0.9-0.1-1c0,0,0-0.5,0-0.7
			c0-0.6,0.1-1,0.1-1.6c0-2-0.6-1.4-2-2.3c-3.5-2.3-4.6-6.9-4.6-10.8c0-1.4,0.1-4.3,0.5-5.6c0.1-0.2,0.2-0.6,0.3-0.7
			c0.3-0.4,5.9-0.8,6.6-0.8c0.1,0,0.7,0,0.8,0c0.4,0.1,0.6,0.6,0.6,0.9c0,1.6-0.2,4.8-0.2,6.4c0,0.3,0,1.6,0,2
			c0,0.2,0.2,1.1,0.2,1.3c0.1,0.5,0.6,2.4,1.4,2.4c2,0,2.5-3.3,2.5-3.6c0-2-0.1-5.3-0.5-7.2c-0.2-0.3-0.2-0.4-0.2-0.7
			c0-0.9,1-1.3,1.7-1.4c1.5,0,3.4-0.2,4.9-0.2c0.2,0,0.9,0,1,0c0.5,0.4,0.8-0.1,1.3,0.6c-0.1,1.3,0.2,3.9,0.2,5.2
			c0,10.7-5.1,11.7-6.6,12.9c0,0-0.1,0.3-0.1,0.4c-0.2,2.1-0.1,4.6-0.1,6.6c0,0.1-0.1,1.1-0.1,1.2c0,0,0,0.2,0,0.2
			c0,0.7,0.1,1.3,0.1,2c0,1.1-1.4,1.6-2.5,1.8c-0.6,0-2.5,0.3-2.7,0.3c0,0-0.6,0-0.8,0c-0.6,0-1.6,0.1-1.8-0.6
			C293,585,293,583.2,293,582.8z"/>
		<path class="st2" d="M319.9,570c0-0.1,0-0.8,0-0.9c0-0.2-0.1-2-0.1-2.2c0-1.4,0-2.6-0.2-3.9c0-0.2-0.2-0.3-0.3-0.3l-3.8-0.5
			c-0.8,0-1.1-0.8-1.3-1.4c0,0,0,0,0-0.1c0-1.5-0.1-2.9-0.1-4.3c0-1.1,3.3-1.1,4.2-1.3c1,0,5.8-0.3,6.8-0.4c0.1,0,1.3,0,1.7,0
			c0.5,0,1.9,0,2,0c3.2,0,2,0.8,2.4,3c0,0,0.2,0.7,0.3,0.7c0,0,0.1,0.3,0.1,0.3v2.7c0,0.8-0.7,1.3-1.4,1.3c-0.4,0-2.4,0.1-2.8,0.1
			c-0.2,0-0.1,0.2-0.1,0.2c0,1.8,0.3,3.7,0.5,5.6c0,0,0,0.3,0,0.4c0.1,0.3,0.3,1.3,0.3,1.3c0.3,4,0.6,8.1,0.6,12.1
			c0,0.1,0,0.3,0,0.4c0,1.5,0,2.4-1.8,2.9c-0.4,0.1-2.6,0.4-3.1,0.4c0,0-0.7,0-1.1,0c-0.1,0-0.9,0-1.1,0c-0.5-0.2-0.7-0.6-1.1-0.9
			C320.4,580.2,320.2,575.1,319.9,570z"/>
		<path class="st2" d="M344.3,582.8c0-0.7,0-2.5,0-2.6c0-0.2,0.1-1.5,0.1-1.6c0-0.1-0.1-0.9-0.1-1c0,0,0-0.5,0-0.7
			c0-0.6,0.1-1,0.1-1.6c0-2-0.6-1.4-2-2.3c-3.5-2.3-4.6-6.9-4.6-10.8c0-1.4,0.1-4.3,0.5-5.6c0.1-0.2,0.2-0.6,0.3-0.7
			c0.3-0.4,5.9-0.8,6.6-0.8c0.1,0,0.7,0,0.8,0c0.4,0.1,0.6,0.6,0.6,0.9c0,1.6-0.2,4.8-0.2,6.4c0,0.3,0,1.6,0,2
			c0,0.2,0.2,1.1,0.2,1.3c0.1,0.5,0.6,2.4,1.4,2.4c2,0,2.5-3.3,2.5-3.6c0-2-0.1-5.3-0.5-7.2c-0.2-0.3-0.2-0.4-0.2-0.7
			c0-0.9,1-1.3,1.7-1.4c1.5,0,3.4-0.2,4.9-0.2c0.2,0,0.9,0,1,0c0.5,0.4,0.8-0.1,1.3,0.6c-0.1,1.3,0.2,3.9,0.2,5.2
			c0,10.7-5.1,11.7-6.6,12.9c0,0-0.1,0.3-0.1,0.4c-0.2,2.1-0.1,4.6-0.1,6.6c0,0.1-0.1,1.1-0.1,1.2c0,0,0,0.2,0,0.2
			c0,0.7,0.1,1.3,0.1,2c0,1.1-1.4,1.6-2.5,1.8c-0.6,0-2.5,0.3-2.7,0.3c0,0-0.6,0-0.8,0c-0.6,0-1.6,0.1-1.8-0.6
			C344.3,585,344.3,583.2,344.3,582.8z"/>
		<path class="st2" d="M366.4,560.4c-0.2-1.5-0.2-3-0.2-4.5c0-1,0.8-0.8,1.6-1.1l3.9-0.2c0.7-0.2,0.9-0.2,1.5-0.2
			c2,0,4.8,0.2,6.6,1.3c0.3,0.3,1.5,1.6,1.8,1.9c1.6,1.8,2,4,2,6.3c0,1.9-0.5,4.2-1.8,5.6c-0.4,0.4-2.3,2.5-2.8,2.8c0,0,0,0.1,0,0.1
			c0.6,0.4,8.3,1,9.3,12.1c0,0.2-0.3,0.3-0.5,0.3l-6.2,0.7h-1.1c-0.2,0-0.3-0.4-0.3-0.5c-0.2-1-0.1-1.2-0.5-2.1
			c-0.2-0.7-1.3-3.6-1.5-4.3c-0.3-0.7-2.2-3.6-3.2-3.4c-0.2,0-0.2,0.2-0.2,0.3c0,0,0,0.2,0,0.2c0.3,3.1,0.7,6.2,0.7,9.3
			c0,1.1-0.7,1.3-1.8,1.5c-0.6,0.1-2.6,0.4-2.8,0.4c-0.1,0-1.1,0-1.4,0c-0.2,0-1.2,0-1.4,0c-0.2-0.1-0.8-0.4-0.8-0.7v-3.6
			L366.4,560.4z M373.9,567.8c0,0.1,0.1,0.2,0.2,0.2c3,0.6,4.5-7.3-0.4-7.6l-0.1,0.1c0,0.2,0,2.9,0,3.1
			C373.7,564.4,373.8,567,373.9,567.8z"/>
		<path class="st2" d="M394.8,579c0-1.7,0.1-3.4,0.1-5.1c0-0.1,0-0.5,0-0.5c0-0.7-0.2-6.5-0.2-7.2c0-0.7,0.1-1.8,0-2.6v-7.7
			c0-0.1,0.6-0.5,0.7-0.5h7.2c0.3,0,0.3,0.3,0.3,0.4c0,3.9-0.3,7.9-0.3,11.8c0,2.8,0.1,5.5,0.1,8.3c0,2.5,0,4.3-0.1,6.8
			c-0.5,2.1-3.7,2.1-5.5,2.1c-0.1,0-0.3,0-0.4,0c-2.2,0-1.5-1-1.8-2.7C394.8,581.6,394.8,579.5,394.8,579z"/>
		<path class="st2" d="M415.1,570c0-0.1,0-0.8,0-0.9c0-0.2-0.1-2-0.1-2.2c0-1.4,0-2.6-0.2-3.9c0-0.2-0.2-0.3-0.3-0.3l-3.8-0.5
			c-0.8,0-1.1-0.8-1.3-1.4c0,0,0,0,0-0.1c0-1.5-0.1-2.9-0.1-4.3c0-1.1,3.3-1.1,4.2-1.3c1,0,5.8-0.3,6.8-0.4c0.1,0,1.3,0,1.7,0
			c0.5,0,1.9,0,2,0c3.2,0,2,0.8,2.4,3c0,0,0.2,0.7,0.3,0.7c0,0,0.1,0.3,0.1,0.3v2.7c0,0.8-0.7,1.3-1.4,1.3c-0.4,0-2.4,0.1-2.8,0.1
			c-0.2,0-0.1,0.2-0.1,0.2c0,1.8,0.3,3.7,0.5,5.6c0,0,0,0.3,0,0.4c0.1,0.3,0.3,1.3,0.3,1.3c0.3,4,0.6,8.1,0.6,12.1
			c0,0.1,0,0.3,0,0.4c0,1.5,0,2.4-1.8,2.9c-0.4,0.1-2.6,0.4-3.1,0.4c0,0-0.7,0-1.1,0c-0.1,0-0.9,0-1.1,0c-0.5-0.2-0.7-0.6-1.1-0.9
			C415.6,580.2,415.4,575.1,415.1,570z"/>
		<path class="st2" d="M438,570c0-0.1,0-0.8,0-0.9c0-0.2-0.1-2-0.1-2.2c0-1.4,0-2.6-0.2-3.9c0-0.2-0.2-0.3-0.3-0.3l-3.8-0.5
			c-0.8,0-1.1-0.8-1.3-1.4c0,0,0,0,0-0.1c0-1.5-0.1-2.9-0.1-4.3c0-1.1,3.3-1.1,4.2-1.3c1,0,5.8-0.3,6.8-0.4c0.1,0,1.3,0,1.7,0
			c0.5,0,1.9,0,2,0c3.2,0,2,0.8,2.4,3c0,0,0.2,0.7,0.3,0.7c0,0,0.1,0.3,0.1,0.3v2.7c0,0.8-0.7,1.3-1.4,1.3c-0.4,0-2.4,0.1-2.8,0.1
			c-0.2,0-0.1,0.2-0.1,0.2c0,1.8,0.3,3.7,0.5,5.6c0,0,0,0.3,0,0.4c0.1,0.3,0.3,1.3,0.3,1.3c0.3,4,0.6,8.1,0.6,12.1
			c0,0.1,0,0.3,0,0.4c0,1.5,0,2.4-1.8,2.9c-0.4,0.1-2.6,0.4-3.1,0.4c0,0-0.7,0-1.1,0c-0.1,0-0.9,0-1.1,0c-0.5-0.2-0.7-0.6-1.1-0.9
			C438.5,580.2,438.3,575.1,438,570z"/>
		<path class="st2" d="M455.9,571.6c0-0.1,0-0.6,0-0.6c0.1-2.5,0.4-5.1,0.7-7.6c0-0.2,0.2-0.9,0.2-1c0.1-0.2,0.8-2.2,1-2.8
			c0,0,0.1-0.1,0.1-0.2c2.3-3.7,5.9-6.1,10.9-4.8c0,0,0.1,0,0.1,0c0.6,0.2,1.3,0.4,1.8,0.8c1.4,1.1,2.2,2.8,2.9,4.5
			c1.3,3.3,0.9,7.3,1,10.8c0,0.2,0.1,1.8,0.1,1.9c0,0.2,0,2.4,0,3.2c0,0.8,0,2.8,0,2.9c0,0.7-0.1,4.1-0.2,4.8c0,1.1-1.1,2-2.1,2
			c-0.3,0,0.8-0.1-2.6-0.3c0,0-0.4-0.1-0.6-0.2c-0.8-0.4-0.9-0.5-1.1-1.3c0-0.3-0.1-1.7-0.1-2c0-0.1,0-0.7,0-0.8
			c0-0.1-0.2-0.1-0.2-0.1c0,0-0.2,0-0.2,0c-0.1,0-3.9,0-4,0c-0.1,0-0.1,0.2-0.1,0.2c0,0,0,0.2,0,0.2c0,0.6,0.1,2.5,0.2,2.6
			c0,0.1,0.2,0.7,0.2,0.8c0,0,0,0.2,0,0.3c0,0.3,0,0.4-0.3,0.5c-0.8,0-2.6,0.3-3.4,0.3c-0.1,0-1.3,0-1.7,0c-0.2,0-1.4,0-1.6,0
			c-0.4-0.1-0.5-0.5-0.5-0.9C456.2,580.4,455.9,576.1,455.9,571.6z M460.6,547.7c0.3-0.1,0.8-0.1,1.1-0.1c0.1,0,0.7,0,0.7,0
			c0.4,0.2,0.9,0.1,1.2,0.4c0.1,0.1,0.5,0.5,0.6,0.6c0.1,0.3,0.1,0.7,0.1,0.9c0,1.4-1.3,2.1-2.5,2.1c-0.9,0-2.1-0.9-2.1-1.9
			C459.7,548.8,460,548.2,460.6,547.7z M463.8,574.1c0,0,1.3,0.1,1.4,0.1c0.1,0,2,0,2.1,0c0-0.3,0.1-2,0.1-2.4c0,0,0-0.2,0-0.2
			c0-0.8-0.2-1.9-0.2-2.7c0-1.4,0-2.7-0.2-4.1c-0.1-3-0.9-4-1.7-3.8c-0.7,0.2-1.5,1.5-1.7,3.5c-0.1,0.4-0.3,1.3-0.3,1.4
			c-0.1,1-0.2,2-0.2,3c0,1.7,0,3.5,0.3,5.1C463.5,574.1,463.6,574.1,463.8,574.1z M468,547.7c0.3-0.1,0.8-0.1,1.1-0.1
			c0.1,0,0.7,0,0.7,0c0.4,0.2,0.9,0.1,1.2,0.4c0.1,0.1,0.5,0.5,0.6,0.6c0.1,0.3,0.1,0.7,0.1,0.9c0,1.4-1.3,2.1-2.5,2.1
			c-0.9,0-2.1-0.9-2.1-1.9C467.1,548.8,467.4,548.3,468,547.7z"/>
		<path class="st2" d="M480.8,577.9c0.2-0.8,4.2-2.5,5-2.5c0,0,0.3,0,0.4,0c0.4,0.3,0.3,3.3,1.9,3.2c2.1-1.2,0.8-10-0.2-22.4
			c0-0.1,1-0.5,1.1-0.5c1.1,0,2.5-0.1,5.7-0.6h0.9c0,0,0.1,0.1,0.1,0.1c0,0,0,0.2,0,0.2c0,0.2,0.2,1.2,0.2,1.4
			c0,1.2,0.3,6.5,0.4,7.6c0,0,0-1,0-0.9c0,0.1,0,0.4,0,0.5c0,3.9,3,21.9-8.9,21.8c-3.9,0-6.6-3.4-6.6-7.1
			C480.8,578.7,480.8,578,480.8,577.9z"/>
		<path class="st2" d="M510.5,582.8c0-0.7,0-2.5,0-2.6c0-0.2,0.1-1.5,0.1-1.6c0-0.1-0.1-0.9-0.1-1c0,0,0-0.5,0-0.7
			c0-0.6,0.1-1,0.1-1.6c0-2-0.6-1.4-2-2.3c-3.5-2.3-4.6-6.9-4.6-10.8c0-1.4,0.1-4.3,0.5-5.6c0.1-0.2,0.2-0.6,0.3-0.7
			c0.3-0.4,5.9-0.8,6.6-0.8c0.1,0,0.7,0,0.8,0c0.4,0.1,0.6,0.6,0.6,0.9c0,1.6-0.2,4.8-0.2,6.4c0,0.3,0,1.6,0,2
			c0,0.2,0.2,1.1,0.2,1.3c0.1,0.5,0.6,2.4,1.4,2.4c2,0,2.5-3.3,2.5-3.6c0-2-0.1-5.3-0.5-7.2c-0.2-0.3-0.2-0.4-0.2-0.7
			c0-0.9,1-1.3,1.7-1.4c1.5,0,3.4-0.2,4.9-0.2c0.2,0,0.9,0,1,0c0.5,0.4,0.8-0.1,1.3,0.6c-0.1,1.3,0.2,3.9,0.2,5.2
			c0,10.7-5.1,11.7-6.6,12.9c0,0-0.1,0.3-0.1,0.4c-0.2,2.1-0.1,4.6-0.1,6.6c0,0.1-0.1,1.1-0.1,1.2c0,0,0,0.2,0,0.2
			c0,0.7,0.1,1.3,0.1,2c0,1.1-1.4,1.6-2.5,1.8c-0.6,0-2.5,0.3-2.7,0.3c0,0-0.6,0-0.8,0c-0.6,0-1.6,0.1-1.8-0.6
			C510.5,585,510.5,583.2,510.5,582.8z"/>
		<path class="st2" d="M538.1,582.8c0-0.7,0-2.5,0-2.6c0-0.2,0.1-1.5,0.1-1.6c0-0.1-0.1-0.9-0.1-1c0,0,0-0.5,0-0.7
			c0-0.6,0.1-1,0.1-1.6c0-2-0.6-1.4-2-2.3c-3.5-2.3-4.6-6.9-4.6-10.8c0-1.4,0.1-4.3,0.5-5.6c0.1-0.2,0.2-0.6,0.3-0.7
			c0.3-0.4,5.9-0.8,6.6-0.8c0.1,0,0.7,0,0.8,0c0.4,0.1,0.6,0.6,0.6,0.9c0,1.6-0.2,4.8-0.2,6.4c0,0.3,0,1.6,0,2
			c0,0.2,0.2,1.1,0.2,1.3c0.1,0.5,0.6,2.4,1.4,2.4c2,0,2.5-3.3,2.5-3.6c0-2-0.1-5.3-0.5-7.2c-0.2-0.3-0.2-0.4-0.2-0.7
			c0-0.9,1-1.3,1.7-1.4c1.5,0,3.4-0.2,4.9-0.2c0.2,0,0.9,0,1,0c0.5,0.4,0.8-0.1,1.3,0.6c-0.1,1.3,0.2,3.9,0.2,5.2
			c0,10.7-5.1,11.7-6.6,12.9c0,0-0.1,0.3-0.1,0.4c-0.2,2.1-0.1,4.6-0.1,6.6c0,0.1-0.1,1.1-0.1,1.2c0,0,0,0.2,0,0.2
			c0,0.7,0.1,1.3,0.1,2c0,1.1-1.4,1.6-2.5,1.8c-0.6,0-2.5,0.3-2.7,0.3c0,0-0.6,0-0.8,0c-0.6,0-1.6,0.1-1.8-0.6
			C538.1,585,538.1,583.2,538.1,582.8z"/>
		<path class="st2" d="M558.9,576.3c0-0.1,0.3-0.9,0.4-1.2c0.2-0.5,0.9-0.7,1.3-0.9c0.1,0,0.2,0,0.3,0c1-0.1,2.3,0,3.3,0
			c0.1,0,0.3-0.1,0.4,0c0.3,6.2,3.1,3.9,3.1,3.8c0.2-4.6-3.6-5.3-5.7-7.7c-0.9-1-2-2.5-2.3-3.9c0-0.1-0.1-0.5-0.1-0.6
			c-0.1-0.8-0.3-1.8-0.3-2.7c0-1,0.5-2.2,0.8-3.2c0-0.1,0-0.2,0.1-0.3c1.4-4.1,6-5.4,9.9-5.4c0.2,0,0.8,0,1,0c4.5,0.6,5,6.3,5,9.7
			c0,0.2,0,1.4,0,1.6c0,0.2-0.2,0.5-0.4,0.6c-0.1,0-0.6,0-0.7,0c-0.1,0-0.6,0-0.7,0c-0.8,0-3.7-0.3-4.5-0.4c-0.5,0-0.6-0.1-0.6-0.5
			c0-0.5,0.1-1,0.1-1.5c0-0.4,0.1-1.5-0.5-1.5c-0.7,0-2,1.1-2,1.7v1.7c0,0.7,0.9,1.6,1.3,2c4,3.8,8.6,5.7,6.8,14.1
			c-0.7,3.3-3.3,4.2-6.6,4.9c-0.2,0-1.2,0-1.4,0c-2.2,0-3.6-0.4-5.2-1.9c-1-0.8-1.8-2-2.1-3.2c0,0,0-0.5,0-0.5
			c0-0.6-0.4-0.8-0.5-1.3c-0.1-1-0.4-2-0.4-3C558.9,576.5,558.9,576.3,558.9,576.3z"/>
	</g>
</g>
<g id="Layer_3">
</g>
</svg>
