<?xml version="1.0" encoding="utf-8"?>
<!-- Generator: Adobe Illustrator 23.0.1, SVG Export Plug-In . SVG Version: 6.00 Build 0)  -->
<svg version="1.1" id="Layer_1" xmlns="http://www.w3.org/2000/svg" xmlns:xlink="http://www.w3.org/1999/xlink" x="0px" y="0px"
	 viewBox="0 0 788.2 290.4" style="enable-background:new 0 0 788.2 290.4;" xml:space="preserve">
<style type="text/css">
	.st0{fill:#494949;}
</style>
<path class="st0" d="M32.5,290.4H21.1L8.8,276.6v13.8H0v-40.7h8.8v13.3l9.7-13.3h10.2l-15.5,20.1L32.5,290.4z"/>
<path class="st0" d="M66,249.8h26v7.6H74.7v9.3h15.1v7.5H74.7v8.7h17.8v7.6H66V249.8z"/>
<path class="st0" d="M135.3,249.8l7.3,26.7l7.3-26.7h9.1l-12.5,40.7h-7.7l-12.5-40.7H135.3z"/>
<path class="st0" d="M204.6,290.4V272l-15.8-22.2h10.4L209,265l10-15.2h10.4l-15.9,22.4v18.3H204.6z"/>
<path class="st0" d="M259.9,249.8h31v7.8h-11.1v32.9H271v-32.9h-11.1V249.8z"/>
<path class="st0" d="M337.2,290.4V272l-15.8-22.2h10.4l9.9,15.2l10-15.2H362l-15.9,22.4v18.3H337.2z"/>
<path class="st0" d="M426,290.4h-10.5l-9.2-14h-2v14h-8.8v-40.7h16.8c9.3,0,13.6,6.7,13.6,13.3c0,5.8-3.2,11.4-10.2,12.9L426,290.4z
	 M404.4,257.4v11.4h7.4c3.4,0,5.2-3.1,5.2-5.7c0-2.5-1.7-5.7-4.9-5.7H404.4z"/>
<path class="st0" d="M472,249.8v40.7h-8.7v-40.7H472z"/>
<path class="st0" d="M508.3,249.8h31v7.8h-11.1v32.9h-8.8v-32.9h-11.1V249.8z"/>
<path class="st0" d="M572.3,249.8h31v7.8h-11.1v32.9h-8.8v-32.9h-11.1V249.8z"/>
<path class="st0" d="M644,280.8l-3.6,9.6h-9.3l15.2-40.7h9.5l15.2,40.7h-9.2l-3.6-9.6H644z M645.1,235.7c2.3,0,4.2,1.8,4.2,4
	c0,2.3-1.9,4.1-4.2,4.1c-2.4,0-4.3-1.8-4.3-4.1C640.8,237.4,642.7,235.7,645.1,235.7z M655.4,273.3l-4.3-14.2l-4.2,14.2H655.4z
	 M655.6,235.7c2.3,0,4.2,1.8,4.2,4c0,2.3-1.9,4.1-4.2,4.1c-2.4,0-4.3-1.8-4.3-4.1C651.3,237.4,653.3,235.7,655.6,235.7z"/>
<path class="st0" d="M700,281.9c2,0.4,5,1,8.9,0.3c2.9-0.6,3.4-2.6,3.5-5.4v-26.6h8.8v30.1c0,5.8-4.3,10.1-13.5,10.1
	c-1.1,0-6.3-0.8-8.5-1.2L700,281.9z"/>
<path class="st0" d="M761.2,280.8l-3.6,9.6h-9.3l15.2-40.7h9.5l15.2,40.7H779l-3.6-9.6H761.2z M762.3,235.7c2.3,0,4.2,1.8,4.2,4
	c0,2.3-1.9,4.1-4.2,4.1c-2.4,0-4.3-1.8-4.3-4.1C757.9,237.4,759.9,235.7,762.3,235.7z M772.6,273.3l-4.3-14.2l-4.2,14.2H772.6z
	 M772.8,235.7c2.3,0,4.2,1.8,4.2,4c0,2.3-1.9,4.1-4.2,4.1c-2.4,0-4.3-1.8-4.3-4.1C768.5,237.4,770.4,235.7,772.8,235.7z"/>
<g>
	<path class="st0" d="M0,0h128.4v38.4H43.8v46.8h67v38.1h-67v81.9H0V0z"/>
	<path class="st0" d="M356.9,205.3h-52.4l-45.9-70.9h-9.8v70.9h-43.8V0h84c46.5,0,68.2,33.7,68.2,67.3c0,29.2-16.1,57.8-51.2,65.2
		L356.9,205.3z M248.7,38.4v57.8h36.9c17,0,25.9-15.5,25.9-28.9c0-12.8-8.3-28.9-24.7-28.9H248.7z"/>
	<path class="st0" d="M439.4,0h129.9v38.4h-86.4v46.8h75.7V123h-75.7v43.8h89.1v38.4H439.4V0z"/>
	<path class="st0" d="M655.6,0h129.9v38.4h-86.4v46.8h75.7V123h-75.7v43.8h89.1v38.4H655.6V0z"/>
</g>
</svg>
